<svg xmlns="http://www.w3.org/2000/svg" viewBox="0 0 1200 630" width="1200" height="630">
  <defs>
    <linearGradient id="bg" x1="0" y1="0" x2="1" y2="1">
      <stop offset="0%" stop-color="#f8fafc"/>
      <stop offset="100%" stop-color="#f1f5f9"/>
    </linearGradient>
    <pattern id="grid" width="60" height="60" patternUnits="userSpaceOnUse">
      <path d="M 60 0 L 0 0 0 60" fill="none" stroke="#5aef76" stroke-width="0.5" opacity="0.08"/>
    </pattern>
  </defs>
  <rect width="1200" height="630" fill="url(#bg)"/>
  <rect width="1200" height="630" fill="url(#grid)"/>
  <!-- Bell icon -->
  <g transform="translate(520, 180)">
    <rect x="0" y="0" width="160" height="160" rx="24" fill="white" stroke="#e5e7eb" stroke-width="1.5"/>
    <path d="M80 40c-16.57 0-30 13.43-30 30v18c0 3.31-2.69 6-6 6h72c-3.31 0-6-2.69-6-6V70c0-16.57-13.43-30-30-30zm0 90c-5.52 0-10-4.48-10-10h20c0 5.52-4.48 10-10 10z" fill="#5aef76" opacity="0.8"/>
    <circle cx="115" cy="50" r="12" fill="#e13f3f"/>
    <text x="115" y="55" text-anchor="middle" fill="white" font-size="14" font-family="Inter, sans-serif" font-weight="600">3</text>
  </g>
  <!-- Title -->
  <text x="600" y="420" text-anchor="middle" fill="#0c2756" font-size="42" font-family="Inter, sans-serif" font-weight="600">Smart Payment Reminders</text>
  <!-- Subtitle -->
  <text x="600" y="470" text-anchor="middle" fill="#52525B" font-size="20" font-family="Inter, sans-serif">Personalized follow-ups, automated</text>
  <!-- Decorative dots -->
  <circle cx="200" cy="150" r="4" fill="#5aef76" opacity="0.3"/>
  <circle cx="1000" cy="500" r="6" fill="#203a7f" opacity="0.2"/>
  <circle cx="180" cy="480" r="5" fill="#e13f3f" opacity="0.15"/>
  <circle cx="1020" cy="160" r="3" fill="#5aef76" opacity="0.25"/>
</svg>
