<?xml version="1.0" encoding="UTF-8"?><svg id="Layer_1" xmlns="http://www.w3.org/2000/svg" viewBox="0 0 1869.73 191.46"><defs><style>.cls-1{fill:#242021;}.cls-1,.cls-2{stroke-width:0px;}.cls-2{fill:#fe5000;}</style></defs><path class="cls-2" d="m1766.38,0l-103.35,61.48v129.98h206.71V61.48L1766.38,0Z"/><polygon class="cls-1" points="37.5 3.96 0 3.96 0 191.45 159.93 191.45 159.93 157.7 37.5 157.7 37.5 3.96"/><path class="cls-1" d="m342.32,3.96h-56.25l-76.88,187.49h39.75l15.37-37.5h99l15.37,37.5h40.5L342.32,3.96Zm-64.13,116.25l33.75-82.5h3.75l33.75,82.5h-71.25Z"/><path class="cls-1" d="m869.69,3.96h-56.25l-76.88,187.49h39.75l15.37-37.5h99l15.37,37.5h40.5L869.69,3.96Zm-64.13,116.25l33.75-82.5h3.75l33.75,82.5h-71.25Z"/><rect class="cls-1" x="1269.56" y="3.96" width="37.5" height="187.49"/><path class="cls-1" d="m1485.99,83.45l-1.87.03-59.08-79.52h-33.74v187.49h37.5v-105.83c0-10.26-.95-20.19-1.33-23.85h1.64c1.4,3.48,5.62,12.34,10.94,19.43l26.25,35.25h37.5l26.25-35.25c5.32-7.09,9.53-15.95,10.94-19.43h1.64c-.39,3.66-1.34,13.59-1.34,23.85v105.83h37.5V3.96h-33.74l-59.05,79.5Z"/><path class="cls-1" d="m1061.95,158.93v-1.44s3.51-1.75,5.58-3.51c2.55-2.23,4.78-4.62,7.17-7.01,2.39-2.39,4.78-4.62,7.17-7.01,0,0,13.07-12.91,18.33-18.17l89.28-87.85V3.97h-176.17v33.8h101.88c9.25,0,18.17-.96,21.52-1.28v1.43s-3.51,1.75-5.58,3.51c-2.55,2.23-4.94,4.62-7.18,7.01-2.39,2.39-4.78,4.62-7.17,7.01l-67.12,66.32-40.18,39.7v29.97h183.82v-33.8h-109.84c-9.25,0-18.18.96-21.52,1.28Z"/><path class="cls-1" d="m638.41,118.68c-.53,5.03-1.29,13.97-1.29,24.02h-1.5c-.37,0-4.49-22.87-14.62-45.37l-24.37-55.87h-37.5l-24.37,55.87c-10.13,22.5-14.25,45.37-14.62,45.37h-1.5c0-10.05-.76-19-1.29-24.02l-13.34-114.72h-36.75l22.5,187.49h39.37l33.37-75.37c9.71-21.62,13.63-35.5,14.66-39.53h1.42c1.04,4.03,4.95,17.91,14.66,39.53l33.37,75.37h39.37L688.5,3.96h-36.75l-13.34,114.72Z"/></svg>